<?xml version="1.0" standalone="no"?>
<!DOCTYPE svg PUBLIC "-//W3C//DTD SVG 20010904//EN"
 "http://www.w3.org/TR/2001/REC-SVG-20010904/DTD/svg10.dtd">
<svg version="1.0" xmlns="http://www.w3.org/2000/svg"
 width="260.000000pt" height="260.000000pt" viewBox="0 0 260.000000 260.000000"
 preserveAspectRatio="xMidYMid meet">
<metadata>
Created by potrace 1.11, written by Peter Selinger 2001-2013
</metadata>
<g transform="translate(0.000000,260.000000) scale(0.100000,-0.100000)"
fill="#000000" stroke="none">
<path d="M0 1300 l0 -1300 1300 0 1300 0 0 1300 0 1300 -1300 0 -1300 0 0
-1300z m1794 48 c219 -579 401 -1059 404 -1066 3 -10 -17 -12 -93 -10 l-97 3
-108 290 -108 290 -484 3 -485 2 -109 -295 -108 -295 -98 0 -98 0 11 28 c6 15
183 481 394 1037 211 556 388 1022 394 1038 10 27 12 27 98 27 l88 0 399
-1052z"/>
<path d="M1093 1597 l-210 -572 420 -3 c231 -1 421 -1 423 1 3 3 -413 1137
-419 1143 -2 2 -98 -254 -214 -569z"/>
</g>
</svg>
